<svg width="20" height="20" viewBox="0 0 20 20" fill="none" xmlns="http://www.w3.org/2000/svg">
<path fill-rule="evenodd" clip-rule="evenodd" d="M20 3.59067C19.2642 3.91734 18.4733 4.13734 17.6433 4.2365C18.4908 3.729 19.1417 2.92484 19.4475 1.9665C18.655 2.4365 17.7767 2.77817 16.8417 2.96234C16.0942 2.16484 15.0267 1.6665 13.8467 1.6665C11.1975 1.6665 9.25083 4.13817 9.84917 6.704C6.44 6.53317 3.41667 4.89984 1.3925 2.41734C0.3175 4.2615 0.835 6.674 2.66167 7.89567C1.99 7.874 1.35667 7.68984 0.804167 7.38234C0.759167 9.28317 2.12167 11.0615 4.095 11.4573C3.5175 11.614 2.885 11.6507 2.24167 11.5273C2.76333 13.1573 4.27833 14.3432 6.075 14.3765C4.35 15.729 2.17667 16.3332 0 16.0765C1.81583 17.2407 3.97333 17.9198 6.29 17.9198C13.9083 17.9198 18.2125 11.4857 17.9525 5.71484C18.7542 5.13567 19.45 4.41317 20 3.59067Z" fill="#575162"/>
</svg>
